<svg id="Layer_1" data-name="Layer 1" xmlns="http://www.w3.org/2000/svg" viewBox="0 0 73.74 103.96"><defs><style>.cls-1{fill:#046fa5;}.cls-2{fill:#b3f2f2;}</style></defs><title>craneskill</title><path class="cls-1" d="M3.25,66.82c2.67-2.06,5.42-4.43,8.41-6.44A54.71,54.71,0,0,1,33.2,52.21c4-.7,8-1.26,12-2.12,4.65-1,8.71-3.1,11.4-7.27,0,0,.14,0,.37-.13a12.05,12.05,0,0,1-4.56,7.79A21.37,21.37,0,0,1,43,54.15c-4.67.87-9.44,1.29-14,2.47-11.65,3-21.44,9-28.29,19.14-.3.44-.57.9-.73,1.17,2.16-2,4.33-4.2,6.76-6.1a37.77,37.77,0,0,1,16.8-7.41,4.2,4.2,0,0,1,.71-.11c1.52-.09,2,.46,1.55,1.92a28.47,28.47,0,0,0-.32,15.82,2.39,2.39,0,0,0,.55,1.1c.11-1.81.1-3.64.35-5.43a33.81,33.81,0,0,1,1.15-5.24c1.89-6.3,6.52-9.68,12.52-11.58,2.24-.71,4.49-1.43,6.68-2.28C53.89,54.85,57.81,49.46,59,42.05,60,35.37,58.58,29,56.23,22.72c-1.11-3-2.23-5.9-2-9.15A9.18,9.18,0,0,1,56.11,8a1.63,1.63,0,0,1,1.75-.67,17.32,17.32,0,0,1,7.22,3.33c2.55,1.92,5,4,7.42,6.06l1,.81.26-.17a8.05,8.05,0,0,0-.55-1.19c-2-2.95-4.1-5.89-6.14-8.85a2.86,2.86,0,0,1-.61-1.25C66,.23,59.09-1.43,54.93,1.24A8.2,8.2,0,0,0,53.4,2.57c5.27-1.3,9,.79,11.73,5.16-.9.74-1.66.33-2.49,0a29.05,29.05,0,0,0-5.79-1.72C52.94,5.6,50,7.77,49,11.57s-.41,7.38.59,11c.77,2.77,1.78,5.46,2.62,8.2a15.87,15.87,0,0,1,.49,6.75A9,9,0,0,1,48.2,44.2a25.93,25.93,0,0,1-10.07,3.25,61.07,61.07,0,0,0-25.22,9.46,30.39,30.39,0,0,0-9.28,9.2C3.44,66.44,3.27,66.78,3.25,66.82Z"/><path class="cls-2" d="M22.47,42.12a37.78,37.78,0,0,1,11.82-4.45l.12,0c.88-.11,1.94-.3,2.29.71s-.65,1.5-1.37,1.83c-2.49,1.15-5.06,2.16-7.56,3.28A61.62,61.62,0,0,0,13,52.21a13.26,13.26,0,0,0-2.07,2.16c.28-.17.58-.33.86-.52A64.45,64.45,0,0,1,36,44.46c2.54-.47,5-1.19,7.52-1.88a7,7,0,0,0,2-1c1.51-1,1.63-2.4.3-3.7a7.73,7.73,0,0,0-5.37-2C33.69,35.63,27.84,38.24,22.47,42.12Z"/><path class="cls-1" d="M54.2,71.68"/><path class="cls-1" d="M94.85,74.65"/><path class="cls-1" d="M22.85,77.23"/><path class="cls-2" d="M53,59.35c-.41,4.53-1.95,16.44-8.87,25.87A68.2,68.2,0,0,1,37.24,93a71.37,71.37,0,0,1-8.77,7.21c-3.57,2.5-5.35,3.74-6.78,3.76-5.72.09-9.5-9.95-9.38-10s3.58,8,8.65,8c1.31,0,2.44-.65,4.69-2,1.13-.66,2.43-1.53,7.09-5.75a65.57,65.57,0,0,0,5.78-5.6,36.27,36.27,0,0,0,3.09-4A36.73,36.73,0,0,0,46.9,72.08a36.45,36.45,0,0,0,.83-5c.08-.94.17-2.37.23-3.2s.1-1.72.13-2.34L44,62.8c-1.08.34-2.62.87-4.44,1.61-2.84,1.15-4.27,1.72-5.46,2.78a11.08,11.08,0,0,0-3.31,6,7.34,7.34,0,0,1,0-.8,8.78,8.78,0,0,1,.11-1A12.49,12.49,0,0,1,34.21,66a16.44,16.44,0,0,1,2.94-2.53,16.73,16.73,0,0,1,2.7-1.43,24.15,24.15,0,0,1,2.63-1c1.75-.57,2.36-.68,3.91-1.14a23.59,23.59,0,0,0,4.77-1.66,10.6,10.6,0,0,0,3.34-2.74c.13-.17.18-.26,1.71-2.75,1.14-1.86,1.54-2.55,1.66-2.5s-.52,2-.55,2A23.37,23.37,0,0,1,53,59.35Z"/><path d="M58.61,92.36"/><path d="M62.25,112.33"/></svg>